# xmcd CD database file
#
# Track frame offsets:
#	150
#	13512
#	25592
#	38922
#
# Disc length: 678 seconds
#
# Revision: 0
# Processed by: cddbd v1.5.1PL2 Copyright (c) Steve Scherf et al.
# Submitted via: CDex 1.51
#
DISCID=2102a404
DTITLE=ヒロミックス - ハロー! アイ・ラヴ・ユー
DYEAR=1999
DGENRE=JPop
TTITLE0=ハロー! アイ・ラヴ・ユー
TTITLE1=誕生日
TTITLE2=ハロー! アイ・ラヴ・ユー (instrumental)
TTITLE3=誕生日 (instrumental)
EXTD=YEAR: 1999
EXTT0=
EXTT1=
EXTT2=
EXTT3=
PLAYORDER=
